<?xml version="1.0" encoding="UTF-8" standalone="no"?><!DOCTYPE svg PUBLIC "-//W3C//DTD SVG 1.1//EN" "http://www.w3.org/Graphics/SVG/1.1/DTD/svg11.dtd"><svg width="100%" height="100%" viewBox="0 0 246 90" version="1.1" xmlns="http://www.w3.org/2000/svg" xmlns:xlink="http://www.w3.org/1999/xlink" xml:space="preserve" xmlns:serif="http://www.serif.com/" style="fill-rule:evenodd;clip-rule:evenodd;stroke-linecap:round;stroke-linejoin:round;stroke-miterlimit:1.5;"><path d="M239.1,11.4l0,67.2c0,4.636 -3.764,8.4 -8.4,8.4l-166.5,-0c-4.636,-0 -8.4,-3.764 -8.4,-8.4l0,-67.2c0,-4.636 3.764,-8.4 8.4,-8.4l166.5,-0c4.636,-0 8.4,3.764 8.4,8.4Z" style="fill:#fff;stroke:#000;stroke-width:3.13px;"/><path d="M176.7,11.4l0,67.2c0,4.636 -3.764,8.4 -8.4,8.4l-154.5,-0c-4.636,-0 -8.4,-3.764 -8.4,-8.4l-0,-67.2c-0,-4.636 3.764,-8.4 8.4,-8.4l154.5,-0c4.636,-0 8.4,3.764 8.4,8.4Z" style="stroke:#000;stroke-width:3.13px;"/><g transform="matrix(1,0,0,0.934632,-4.44089e-16,-0.503334)"><g transform="matrix(71.3293,0,0,71.3293,172.143,69.9776)"></g><text x="5.557px" y="69.978px" style="font-family:'ArialMT', 'Arial';font-size:71.329px;fill:#fff;">Kode</text></g><g transform="matrix(1,0,0,0.934632,0,-0.483724)"><g transform="matrix(71.3293,0,0,71.3293,231.087,70.2776)"></g><text x="179.575px" y="70.278px" style="font-family:'ArialMT', 'Arial';font-size:71.329px;">ly</text></g></svg>